<svg width="910" height="260" viewBox="0 0 91 26" version="1.1" xmlns="http://www.w3.org/2000/svg">
  <g fill="#005aa0">
    <path d="M6.172 1l1 2.535L5.764 7H3v17h2.04L13 1z" />
    <path d="M23.768 1l-1.721 5H11V1zM19.625 13l-1.734 5H5.5v-5z" />
    <path d="M5 1l1 2.535L5 6H2L1 1z" />
    <text x="30" y="15" font-family="Arial" font-size="19.6" font-weight="bold" textLength="62" lengthAdjust="spacingAndGlyphs">
      FINAM
    </text>
  </g>
  <g fill="#ffa600">
    <path d="M6.232 24l1.721-5H19v5zM10.375 12l1.734-5H24.5v5z" />
    <path d="M24.961 1l-7.96 23h6.827l-1-2.535L24.236 18H27V1z" />
    <path d="M25 24l-1-2.535L25 19h3l1 5z" />
    <text x="31" y="24" font-family="Arial" font-size="7.3" font-weight="bold" textLength="60" lengthAdjust="spacingAndGlyphs">
      Plot Component
    </text>
  </g>
</svg>
