<svg width="256" height="256" viewBox="0 0 256 256" version="1.1" xmlns="http://www.w3.org/2000/svg">
  <g fill="#ffa600">
    <path d="M57.854 224l13.772-40h88.375v40z" />
    <path d="M91 128l13.875-40H204v40z" />
    <path d="M207.69 40l-63.688 184h54.625l-8-20.281L201.893 176h22.109V40z" />
    <path d="M208 224l-8-20.281L208 184h24l8 40z" />
  </g>
  <g fill="#005aa0">
    <path d="M57.375 40l8 20.281L54.109 88H32v136h16.312L112 40z" />
    <path d="M198.15 40l-13.772 40H96.003V40z" />
    <path d="M165 136l-13.875 40H52v-40z" />
    <path d="M48 40l8 20.281L48 80H24l-8-40z" />
    <text x="160" y="216" font-family="Arial" font-size="35" transform="skewX(-19)" font-weight="bold" textLength="80" lengthAdjust="spacingAndGlyphs">
      Plot
    </text>
  </g>
</svg>
